<svg id="visual" viewBox="0 0 900 600" width="900" height="600" xmlns="http://www.w3.org/2000/svg" xmlns:xlink="http://www.w3.org/1999/xlink" version="1.1"><rect x="0" y="0" width="900" height="600" fill="#fff"></rect><path d="M0 447L18.8 440.3C37.7 433.7 75.3 420.3 112.8 412.3C150.3 404.3 187.7 401.7 225.2 406.3C262.7 411 300.3 423 337.8 428.2C375.3 433.3 412.7 431.7 450.2 433.7C487.7 435.7 525.3 441.3 562.8 443C600.3 444.7 637.7 442.3 675.2 433.5C712.7 424.7 750.3 409.3 787.8 401.7C825.3 394 862.7 394 881.3 394L900 394L900 601L881.3 601C862.7 601 825.3 601 787.8 601C750.3 601 712.7 601 675.2 601C637.7 601 600.3 601 562.8 601C525.3 601 487.7 601 450.2 601C412.7 601 375.3 601 337.8 601C300.3 601 262.7 601 225.2 601C187.7 601 150.3 601 112.8 601C75.3 601 37.7 601 18.8 601L0 601Z" fill="#f0f5fa" stroke-linecap="round" stroke-linejoin="miter"></path></svg>